<?xml version="1.0" encoding="utf-8"?>
<!-- Generator: Adobe Illustrator 27.0.0, SVG Export Plug-In . SVG Version: 6.00 Build 0)  -->
<svg version="1.1" id="Layer_1" xmlns="http://www.w3.org/2000/svg" xmlns:xlink="http://www.w3.org/1999/xlink" x="0px" y="0px"
	 viewBox="0 0 166 15" style="enable-background:new 0 0 166 15;" xml:space="preserve">
<style type="text/css">
	.st0{fill:#EFB624;}
</style>
<path class="st0" d="M3.8,14.7H0.5l5-14.5h4l5,14.5h-3.3L7.5,3.5H7.4L3.8,14.7z M3.6,9h7.8v2.4H3.6V9z"/>
<path class="st0" d="M16.2,14.7V0.2h3.1v12h6.2v2.5H16.2z"/>
<path class="st0" d="M27.6,14.7V0.2h9.8v2.5h-6.7v3.5h6.2v2.5h-6.2v3.5h6.8v2.5H27.6z"/>
<path class="st0" d="M42.7,0.2l2.9,5h0.1l2.9-5h3.5l-4.4,7.3l4.5,7.3h-3.5l-3-5h-0.1l-3,5h-3.5l4.6-7.3l-4.5-7.3H42.7z"/>
<path class="st0" d="M61.3,14.7H58l5-14.5h4l5,14.5h-3.3L65,3.5h-0.1L61.3,14.7z M61,9h7.8v2.4H61V9z"/>
<path class="st0" d="M82.7,0.2h3.1v9.4c0,1.1-0.3,2-0.8,2.8c-0.5,0.8-1.2,1.4-2.1,1.9c-0.9,0.4-2,0.7-3.2,0.7
	c-1.2,0-2.3-0.2-3.2-0.7c-0.9-0.4-1.6-1.1-2.1-1.9c-0.5-0.8-0.8-1.7-0.8-2.8V0.2h3.1v9.2c0,0.6,0.1,1,0.4,1.5c0.2,0.4,0.6,0.8,1,1
	s1,0.4,1.6,0.4c0.6,0,1.1-0.1,1.6-0.4c0.4-0.2,0.8-0.6,1-1c0.2-0.4,0.4-0.9,0.4-1.5V0.2z"/>
<path class="st0" d="M95,6.3v2.4h-6.6V6.3H95z"/>
<path class="st0" d="M96.2,0.2h3.4l3.3,6.3h0.1l3.3-6.3h3.4l-5.3,9.4v5.1h-3.1V9.6L96.2,0.2z"/>
<path class="st0" d="M111.5,14.7V0.2h9.8v2.5h-6.7v3.5h6.2v2.5h-6.2v3.5h6.8v2.5H111.5z"/>
<path class="st0" d="M132.8,0.2h3.1v9.4c0,1.1-0.3,2-0.8,2.8c-0.5,0.8-1.2,1.4-2.1,1.9c-0.9,0.4-2,0.7-3.2,0.7
	c-1.2,0-2.3-0.2-3.2-0.7c-0.9-0.4-1.6-1.1-2.1-1.9c-0.5-0.8-0.8-1.7-0.8-2.8V0.2h3.1v9.2c0,0.6,0.1,1,0.4,1.5c0.2,0.4,0.6,0.8,1,1
	c0.4,0.2,1,0.4,1.6,0.4c0.6,0,1.1-0.1,1.6-0.4c0.4-0.2,0.8-0.6,1-1c0.2-0.4,0.4-0.9,0.4-1.5V0.2z"/>
<path class="st0" d="M150.5,0.2v14.5h-2.7l-6.3-9.2h-0.1v9.2h-3.1V0.2h2.7l6.3,9.1h0.1V0.2H150.5z"/>
<path class="st0" d="M162.7,4.9c-0.1-0.3-0.2-0.7-0.4-0.9c-0.2-0.3-0.4-0.5-0.7-0.7c-0.3-0.2-0.5-0.3-0.9-0.4
	c-0.3-0.1-0.7-0.1-1.1-0.1c-0.7,0-1.4,0.2-2,0.6c-0.6,0.4-1,0.9-1.3,1.6c-0.3,0.7-0.5,1.6-0.5,2.6c0,1,0.2,1.9,0.5,2.6
	c0.3,0.7,0.7,1.3,1.3,1.6c0.6,0.4,1.2,0.6,2,0.6c0.7,0,1.3-0.1,1.8-0.4c0.5-0.3,0.9-0.6,1.1-1.1c0.3-0.5,0.4-1,0.4-1.6l0.6,0.1h-3.8
	V7h6.1v1.8c0,1.3-0.3,2.4-0.8,3.3c-0.5,0.9-1.3,1.6-2.2,2.1c-0.9,0.5-2,0.7-3.3,0.7c-1.4,0-2.6-0.3-3.6-0.9c-1-0.6-1.8-1.5-2.4-2.6
	c-0.6-1.1-0.9-2.4-0.9-4c0-1.2,0.2-2.2,0.5-3.2c0.3-0.9,0.8-1.7,1.4-2.4c0.6-0.6,1.3-1.1,2.2-1.5c0.8-0.3,1.7-0.5,2.7-0.5
	c0.8,0,1.6,0.1,2.3,0.4c0.7,0.2,1.3,0.6,1.9,1c0.6,0.4,1,1,1.4,1.6c0.4,0.6,0.6,1.3,0.7,2H162.7z"/>
</svg>
