<?xml version="1.0" standalone="no"?>
<!DOCTYPE svg PUBLIC "-//W3C//DTD SVG 20010904//EN"
 "http://www.w3.org/TR/2001/REC-SVG-20010904/DTD/svg10.dtd">
<svg version="1.0" xmlns="http://www.w3.org/2000/svg"
 width="558.000000pt" height="558.000000pt" viewBox="0 0 558.000000 558.000000"
 preserveAspectRatio="xMidYMid meet">
<metadata>
Created by potrace 1.14, written by Peter Selinger 2001-2017
</metadata>
<g transform="translate(0.000000,558.000000) scale(0.100000,-0.100000)"
fill="#000000" stroke="none">
<path d="M2588 5575 c-1 -2 -34 -6 -73 -9 -38 -3 -81 -8 -95 -10 -14 -3 -59
-10 -100 -16 -101 -17 -98 -16 -197 -40 -683 -169 -1284 -596 -1670 -1187 -40
-62 -73 -116 -73 -122 0 -5 -4 -11 -8 -13 -9 -3 -109 -200 -154 -303 -74 -169
-164 -489 -183 -646 -3 -24 -8 -53 -10 -64 -20 -96 -27 -529 -11 -665 71 -612
322 -1165 728 -1604 l54 -59 60 33 c111 63 509 293 513 296 2 2 -31 39 -75 82
-70 70 -105 107 -167 179 -19 21 -18 22 75 76 51 30 109 64 128 75 19 10 193
110 385 222 193 112 366 211 385 222 19 10 42 23 50 29 14 8 201 117 278 160
18 11 35 19 37 19 3 0 5 -497 5 -1104 0 -874 3 -1105 13 -1108 37 -14 442 -17
572 -6 121 11 306 44 439 78 246 64 482 162 699 289 43 25 86 51 95 56 27 15
203 141 234 167 14 13 46 39 70 58 113 91 364 358 441 470 152 220 230 354
311 537 112 252 199 584 223 850 10 111 10 455 0 550 -50 471 -207 903 -469
1291 -29 42 -55 79 -58 82 -3 3 -25 31 -49 64 -51 68 -200 236 -210 236 -3 0
-63 -32 -131 -71 -132 -75 -141 -80 -260 -150 -41 -24 -91 -53 -111 -63 -80
-42 -80 -38 2 -118 171 -167 314 -360 422 -568 47 -92 128 -283 133 -317 1 -7
9 -34 18 -60 18 -55 51 -207 60 -273 4 -25 10 -72 15 -105 9 -62 7 -422 -3
-485 -3 -19 -8 -50 -11 -68 -25 -161 -107 -452 -127 -452 -7 0 -221 122 -337
192 -34 21 -65 38 -67 38 -3 0 -85 47 -182 103 -97 57 -285 166 -417 242 -132
76 -292 168 -355 205 -63 37 -142 82 -175 101 -33 19 -69 39 -80 46 -11 7 -30
18 -42 24 l-23 12 0 1294 c0 711 -3 1294 -7 1294 -5 1 -19 3 -33 6 -31 5 -477
13 -482 8z m-118 -1628 c0 -915 -1 -973 -17 -983 -10 -6 -38 -22 -63 -36 -25
-14 -74 -42 -110 -63 -36 -21 -78 -45 -95 -55 -16 -9 -104 -60 -195 -112 -91
-53 -182 -105 -202 -116 -20 -12 -55 -32 -77 -46 -22 -15 -43 -26 -46 -26 -2
0 -29 -16 -59 -35 -30 -19 -57 -35 -60 -35 -5 0 -136 -74 -176 -100 -16 -10
-106 -62 -157 -92 -114 -64 -327 -187 -343 -198 -28 -18 -81 -43 -84 -39 -14
18 -89 269 -102 344 -2 17 -7 37 -9 45 -2 8 -7 35 -10 60 -3 25 -8 61 -11 80
-3 19 -7 116 -9 215 -4 269 17 423 94 683 62 208 206 483 354 672 162 207 368
388 612 537 169 103 493 227 654 249 23 3 54 10 69 14 15 5 30 9 35 9 4 1 7
-437 7 -972z m1038 -1941 c213 -123 470 -271 571 -330 101 -58 187 -106 192
-106 5 0 9 -4 9 -10 0 -5 4 -10 10 -10 5 0 44 -20 86 -45 41 -25 80 -45 86
-45 15 0 7 -14 -42 -72 -146 -171 -325 -320 -545 -455 -146 -89 -365 -179
-550 -225 -84 -21 -92 -22 -167 -36 l-48 -9 0 783 c0 431 2 784 5 784 3 0 180
-101 393 -224z"/>
</g>
</svg>
